# Blender v2.80 (sub 75) OBJ File: 'lampu lift.blend'
# www.blender.org
mtllib lampu lift.mtl
o Cube_Cube.001
v 0.695620 2.375135 -1.200907
v 0.695620 2.516779 -1.200907
v 0.695620 2.375135 -1.782326
v 0.695620 2.516779 -1.782326
v 1.277040 2.375135 -1.200907
v 1.277040 2.516779 -1.200907
v 1.277040 2.375135 -1.782326
v 1.277040 2.516779 -1.782326
v 0.695620 2.375135 -1.753354
v 0.695620 2.516779 -1.753354
v 1.277040 2.375135 -1.753354
v 1.277040 2.516779 -1.753354
v 1.248218 2.375135 -1.782326
v 1.248218 2.516779 -1.782326
v 1.248218 2.375135 -1.200907
v 1.248218 2.516779 -1.200907
v 1.248218 2.516779 -1.753354
v 1.248218 2.375135 -1.753354
v 0.722925 2.375135 -1.782326
v 0.722925 2.516779 -1.200907
v 0.722925 2.375135 -1.753354
v 0.722925 2.516779 -1.782326
v 0.722925 2.375135 -1.200907
v 0.722925 2.516779 -1.753354
v 0.695620 2.375135 -1.227993
v 1.277040 2.516779 -1.227993
v 0.695620 2.516779 -1.227993
v 1.277040 2.375135 -1.227993
v 1.248218 2.516779 -1.227993
v 1.248218 2.375135 -1.227993
v 0.722925 2.375135 -1.227993
v 0.722925 2.516779 -1.227993
v 0.695620 2.392057 -1.200907
v 0.695620 2.392057 -1.782326
v 1.277040 2.392057 -1.782326
v 1.277040 2.392057 -1.200907
v 1.277040 2.392057 -1.753354
v 0.695620 2.392057 -1.753354
v 1.248218 2.392057 -1.200907
v 1.248218 2.392057 -1.782326
v 0.722925 2.392057 -1.782326
v 0.722925 2.392057 -1.200907
v 0.695620 2.392057 -1.227993
v 1.277040 2.392057 -1.227993
vt 0.404867 0.237542
vt 0.625000 0.237542
vt 0.625000 0.250000
vt 0.404867 0.250000
vt 0.404867 0.487607
vt 0.625000 0.487607
vt 0.625000 0.500000
vt 0.404867 0.500000
vt 0.404867 0.738354
vt 0.625000 0.738354
vt 0.625000 0.750000
vt 0.404867 0.750000
vt 0.404867 0.988259
vt 0.625000 0.988259
vt 0.625000 1.000000
vt 0.404867 1.000000
vt 0.362607 0.738354
vt 0.375000 0.738354
vt 0.375000 0.750000
vt 0.362607 0.750000
vt 0.863260 0.738354
vt 0.875000 0.738354
vt 0.875000 0.750000
vt 0.863259 0.750000
vt 0.863259 0.500000
vt 0.875000 0.500000
vt 0.875000 0.512458
vt 0.863259 0.512458
vt 0.362607 0.500000
vt 0.375000 0.500000
vt 0.375000 0.512458
vt 0.362607 0.512458
vt 0.625000 0.512458
vt 0.404867 0.512458
vt 0.136741 0.500000
vt 0.136741 0.512458
vt 0.637393 0.500000
vt 0.637393 0.512458
vt 0.637393 0.738354
vt 0.637393 0.750000
vt 0.136741 0.738354
vt 0.136741 0.750000
vt 0.625000 0.762393
vt 0.404867 0.762393
vt 0.625000 0.261741
vt 0.404867 0.261741
vt 0.125000 0.738354
vt 0.125000 0.750000
vt 0.125000 0.500000
vt 0.125000 0.512458
vt 0.404867 0.000000
vt 0.625000 0.000000
vt 0.625000 0.011646
vt 0.404867 0.011646
vt 0.375000 0.000000
vt 0.375000 0.011646
vt 0.375000 0.762393
vt 0.375000 0.988259
vt 0.375000 0.250000
vt 0.375000 0.261741
vt 0.375000 0.487607
vt 0.375000 0.237542
vt 0.375000 1.000000
vn -1.0000 0.0000 0.0000
vn 0.0000 0.0000 -1.0000
vn 1.0000 0.0000 0.0000
vn 0.0000 0.0000 1.0000
vn 0.0000 -1.0000 0.0000
vn 0.0000 1.0000 0.0000
usemtl frame
s off
f 38/1/1 10/2/1 4/3/1 34/4/1
f 40/5/2 14/6/2 8/7/2 35/8/2
f 44/9/3 26/10/3 6/11/3 36/12/3
f 42/13/4 20/14/4 2/15/4 33/16/4
f 30/17/5 28/18/5 5/19/5 15/20/5
f 32/21/6 27/22/6 2/23/6 20/24/6
f 22/25/6 4/26/6 10/27/6 24/28/6
f 13/29/5 7/30/5 11/31/5 18/32/5
f 35/8/3 8/7/3 12/33/3 37/34/3
f 19/35/5 13/29/5 18/32/5 21/36/5
f 8/7/6 14/37/6 17/38/6 12/33/6
f 26/10/6 29/39/6 16/40/6 6/11/6
f 31/41/5 30/17/5 15/20/5 23/42/5
f 36/12/4 6/11/4 16/43/4 39/44/4
f 34/4/2 4/3/2 22/45/2 41/46/2
f 25/47/5 31/41/5 23/42/5 1/48/5
f 3/49/5 19/35/5 21/36/5 9/50/5
f 14/37/6 22/25/6 24/28/6 17/38/6
f 29/39/6 32/21/6 20/24/6 16/40/6
f 17/38/6 24/28/6 32/21/6 29/39/6
f 9/50/5 21/36/5 31/41/5 25/47/5
f 12/33/6 17/38/6 29/39/6 26/10/6
f 33/51/1 2/52/1 27/53/1 43/54/1
f 24/28/6 10/27/6 27/22/6 32/21/6
f 18/32/5 11/31/5 28/18/5 30/17/5
f 11/31/3 37/34/3 44/9/3 28/18/3
f 1/55/1 33/51/1 43/54/1 25/56/1
f 15/57/4 39/44/4 42/13/4 23/58/4
f 3/59/2 34/4/2 41/46/2 19/60/2
f 19/60/2 41/46/2 40/5/2 13/61/2
f 5/19/4 36/12/4 39/44/4 15/57/4
f 25/56/1 43/54/1 38/1/1 9/62/1
f 7/30/3 35/8/3 37/34/3 11/31/3
f 23/58/4 42/13/4 33/16/4 1/63/4
f 28/18/3 44/9/3 36/12/3 5/19/3
f 13/61/2 40/5/2 35/8/2 7/30/2
f 9/62/1 38/1/1 34/4/1 3/59/1
usemtl lampu
f 43/54/1 27/53/1 10/2/1 38/1/1
f 41/46/2 22/45/2 14/6/2 40/5/2
f 39/44/4 16/43/4 20/14/4 42/13/4
f 21/36/5 18/32/5 30/17/5 31/41/5
f 37/34/3 12/33/3 26/10/3 44/9/3
