# Blender v2.80 (sub 75) OBJ File: 'rk3x3.blend'
# www.blender.org
mtllib rk3x3.mtl
o 3x3x2,5
v 0.000000 0.000000 0.000000
v 0.000000 2.500000 0.000000
v 3.000000 2.500000 0.000000
v 3.000000 0.000000 0.000000
v 0.000000 0.000000 -3.000000
v 0.000000 2.500000 -3.000000
v 3.000000 0.000000 -3.000000
v 3.000000 2.500000 -3.000000
vt 0.999232 0.001166
vt 0.999232 0.999187
vt 0.001720 0.999187
vt 0.001720 0.001166
vt 0.002934 0.001279
vt 0.997772 0.001279
vt 0.997772 0.998810
vt 0.002934 0.998810
vt 0.998538 0.001577
vt 0.998538 0.999221
vt 0.001796 0.999221
vt 0.001796 0.001577
vt 0.999208 0.999465
vt 0.001820 0.999465
vt 0.001820 0.003346
vt 0.999208 0.003346
vt 0.997652 0.998226
vt 0.001736 0.998226
vt 0.001736 0.001411
vt 0.997652 0.001411
vt 0.001233 0.002093
vt 0.997362 0.002093
vt 0.997362 0.998109
vt 0.001233 0.998109
vn 0.0000 0.0000 -1.0000
vn 1.0000 0.0000 0.0000
vn 0.0000 1.0000 0.0000
vn -1.0000 0.0000 0.0000
vn 0.0000 -1.0000 -0.0000
vn 0.0000 -0.0000 1.0000
usemtl FrontColor
s 1
f 1/1/1 2/2/1 3/3/1 4/4/1
f 1/5/2 5/6/2 6/7/2 2/8/2
f 4/9/3 7/10/3 5/11/3 1/12/3
f 3/13/4 8/14/4 7/15/4 4/16/4
f 6/17/5 8/18/5 3/19/5 2/20/5
f 8/21/6 6/22/6 5/23/6 7/24/6
