# Blender v2.80 (sub 75) OBJ File: 'rk4x4.blend'
# www.blender.org
mtllib rk4x4.mtl
o 4x4x2,5.001
v 0.000000 2.500000 0.000000
v 0.000000 0.000000 0.000000
v 0.000000 0.000001 -4.000000
v 0.000000 2.500001 -4.000000
v 4.000000 0.000000 0.000000
v 4.000000 2.500000 0.000000
v 4.000000 0.000001 -4.000000
v 4.000000 2.500001 -4.000000
vt 0.002354 0.996986
vt 0.002354 0.002103
vt 0.997859 0.002103
vt 0.997859 0.996986
vt 0.000469 0.001273
vt 0.999063 0.001273
vt 0.999063 0.998651
vt 0.000469 0.998651
vt 0.998773 0.001386
vt 0.998773 0.998269
vt 0.001282 0.998269
vt 0.001282 0.001386
vt 0.996841 0.997618
vt 0.002828 0.997618
vt 0.002828 0.003829
vt 0.996841 0.003829
vt 0.001456 0.998936
vt 0.001456 0.002121
vt 0.998218 0.002121
vt 0.998218 0.998936
vt 0.995946 0.998174
vt 0.003216 0.998174
vt 0.003216 0.003298
vt 0.995946 0.003298
vn 1.0000 0.0000 0.0000
vn 0.0000 0.0000 -1.0000
vn 0.0000 1.0000 0.0000
vn -1.0000 0.0000 0.0000
vn 0.0000 -1.0000 -0.0000
vn 0.0000 -0.0000 1.0000
usemtl FrontColor
s 1
f 1/1/1 2/2/1 3/3/1 4/4/1
f 5/5/2 2/6/2 1/7/2 6/8/2
f 5/9/3 7/10/3 3/11/3 2/12/3
f 6/13/4 8/14/4 7/15/4 5/16/4
f 8/17/5 6/18/5 1/19/5 4/20/5
f 8/21/6 4/22/6 3/23/6 7/24/6
