# Blender v2.80 (sub 75) OBJ File: 'rk5x5.blend'
# www.blender.org
mtllib rk5x5.mtl
o 5x5x2,5
v 0.000000 2.500001 -5.000000
v 0.000000 2.500000 0.000000
v 0.000000 0.000000 0.000000
v 0.000000 0.000001 -5.000000
v 5.000000 2.500000 0.000000
v 5.000000 2.500001 -5.000000
v 5.000000 0.000000 0.000000
v 5.000000 0.000001 -5.000000
vt 0.996512 0.996396
vt 0.001676 0.996396
vt 0.001676 0.002008
vt 0.996512 0.002008
vt 0.003115 0.002094
vt 0.997573 0.002094
vt 0.997573 0.995866
vt 0.003115 0.995866
vt 0.003332 0.003930
vt 0.995430 0.003930
vt 0.995430 0.994705
vt 0.003332 0.994705
vt 0.002617 0.002686
vt 0.998927 0.002686
vt 0.998927 0.995832
vt 0.002617 0.995832
vt 0.003323 0.995911
vt 0.003323 0.003797
vt 0.997946 0.003797
vt 0.997946 0.995911
vt 0.995266 0.995218
vt 0.002488 0.995218
vt 0.002488 0.003868
vt 0.995266 0.003868
vn 1.0000 0.0000 0.0000
vn 0.0000 -1.0000 -0.0000
vn 0.0000 0.0000 -1.0000
vn 0.0000 1.0000 0.0000
vn -1.0000 -0.0000 0.0000
vn 0.0000 -0.0000 1.0000
usemtl FrontColor
s 1
f 1/1/1 2/2/1 3/3/1 4/4/1
f 5/5/2 2/6/2 1/7/2 6/8/2
f 7/9/3 3/10/3 2/11/3 5/12/3
f 3/13/4 7/14/4 8/15/4 4/16/4
f 6/17/5 8/18/5 7/19/5 5/20/5
f 6/21/6 1/22/6 4/23/6 8/24/6
