# Blender v2.80 (sub 75) OBJ File: 'rk5x4.blend'
# www.blender.org
mtllib rk5x4.mtl
o 5x4x2,5
v 0.000000 0.000000 0.000000
v 0.000000 0.000001 -4.000000
v 0.000000 2.503191 -4.000000
v 0.000000 2.503190 0.000000
v 5.001470 0.000000 0.000000
v 5.001470 0.000001 -4.000000
v 5.001470 2.503191 -4.000000
v 5.001470 2.503190 0.000000
vt 0.001628 0.002285
vt 0.997941 0.002285
vt 0.997941 0.997815
vt 0.001628 0.997815
vt 0.996414 0.003861
vt 0.996414 0.997245
vt 0.001868 0.997245
vt 0.001868 0.003861
vt 0.002148 0.998141
vt 0.002148 0.005004
vt 0.997154 0.005004
vt 0.997154 0.998141
vt 0.998301 0.998199
vt 0.000476 0.998199
vt 0.000476 0.002072
vt 0.998301 0.002072
vt 0.004886 0.003354
vt 0.997990 0.003354
vt 0.997990 0.996022
vt 0.004886 0.996022
vt 0.997104 0.003927
vt 0.997104 0.998560
vt 0.002979 0.998560
vt 0.002979 0.003927
vn 1.0000 0.0000 0.0000
vn 0.0000 1.0000 0.0000
vn -1.0000 -0.0000 0.0000
vn 0.0000 -0.0000 1.0000
vn 0.0000 -1.0000 -0.0000
vn 0.0000 0.0000 -1.0000
usemtl FrontColor
s 1
f 1/1/1 2/2/1 3/3/1 4/4/1
f 5/5/2 6/6/2 2/7/2 1/8/2
f 7/9/3 6/10/3 5/11/3 8/12/3
f 7/13/4 3/14/4 2/15/4 6/16/4
f 8/17/5 4/18/5 3/19/5 7/20/5
f 1/21/6 4/22/6 8/23/6 5/24/6
