# Blender v2.80 (sub 75) OBJ File: 'kt2x3.blend'
# www.blender.org
mtllib kt2x3.mtl
o 2x3x2,5
v 0.000000 2.500000 0.000000
v 2.000000 2.500000 0.000000
v 2.000000 0.000000 0.000000
v 0.000000 0.000000 0.000000
v 0.000000 2.500000 -3.000000
v 2.000000 2.500000 -3.000000
v 0.000000 0.000000 -3.000000
v 2.000000 0.000000 -3.000000
vt 0.974723 0.961552
vt 0.016456 0.961552
vt 0.016456 0.030469
vt 0.974723 0.030469
vt 0.968380 0.965188
vt 0.020988 0.965188
vt 0.020988 0.023507
vt 0.968380 0.023507
vt 0.977880 0.977847
vt 0.024420 0.977847
vt 0.024420 0.019945
vt 0.977880 0.019945
vt 0.983873 0.974513
vt 0.016559 0.974513
vt 0.016559 0.030577
vt 0.983873 0.030577
vt 0.930640 0.028201
vt 0.930640 0.943497
vt 0.039881 0.943497
vt 0.039881 0.028201
vt 0.011000 0.978551
vt 0.011000 0.028332
vt 0.990442 0.028332
vt 0.990442 0.978551
vn 0.0000 0.0000 -1.0000
vn 0.0000 -1.0000 -0.0000
vn 0.0000 -0.0000 1.0000
vn 1.0000 0.0000 0.0000
vn 0.0000 1.0000 0.0000
vn -1.0000 0.0000 0.0000
usemtl FrontColor
s 1
f 1/1/1 2/2/1 3/3/1 4/4/1
f 5/5/2 6/6/2 2/7/2 1/8/2
f 6/9/3 5/10/3 7/11/3 8/12/3
f 5/13/4 1/14/4 4/15/4 7/16/4
f 3/17/5 8/18/5 7/19/5 4/20/5
f 6/21/6 8/22/6 3/23/6 2/24/6
