# Blender v2.80 (sub 75) OBJ File: 'kt3x3.blend'
# www.blender.org
mtllib kt3x3.mtl
o 3x3x2,5
v 0.000000 0.000000 0.000000
v 0.000000 2.500000 0.000000
v 3.000000 2.500000 0.000000
v 3.000000 0.000000 0.000000
v 0.000000 0.000000 -3.000000
v 0.000000 2.500000 -3.000000
v 3.000000 0.000000 -3.000000
v 3.000000 2.500000 -3.000000
vt 0.984071 0.013744
vt 0.984071 0.981253
vt 0.016466 0.981253
vt 0.016466 0.013744
vt 0.011152 0.033291
vt 0.976502 0.033291
vt 0.976502 0.968462
vt 0.011152 0.968462
vt 0.968497 0.026019
vt 0.968497 0.959694
vt 0.034822 0.959694
vt 0.034822 0.026019
vt 0.976194 0.970624
vt 0.013825 0.970624
vt 0.013825 0.013128
vt 0.976194 0.013128
vt 0.970255 0.966960
vt 0.020274 0.966960
vt 0.020274 0.016979
vt 0.970255 0.016979
vt 0.018949 0.024745
vt 0.977085 0.024745
vt 0.977085 0.968460
vt 0.018949 0.968460
vn 0.0000 0.0000 -1.0000
vn 1.0000 0.0000 0.0000
vn 0.0000 1.0000 0.0000
vn -1.0000 0.0000 0.0000
vn 0.0000 -1.0000 -0.0000
vn 0.0000 -0.0000 1.0000
usemtl FrontColor
s 1
f 1/1/1 2/2/1 3/3/1 4/4/1
f 1/5/2 5/6/2 6/7/2 2/8/2
f 4/9/3 7/10/3 5/11/3 1/12/3
f 3/13/4 8/14/4 7/15/4 4/16/4
f 6/17/5 8/18/5 3/19/5 2/20/5
f 8/21/6 6/22/6 5/23/6 7/24/6
