# Blender v2.80 (sub 75) OBJ File: 'kt4x4.blend'
# www.blender.org
mtllib kt4x4.mtl
o 4x4x2,5.001
v 0.000000 2.500000 0.000000
v 0.000000 0.000000 0.000000
v 0.000000 0.000001 -4.000000
v 0.000000 2.500001 -4.000000
v 4.000000 0.000000 0.000000
v 4.000000 2.500000 0.000000
v 4.000000 0.000001 -4.000000
v 4.000000 2.500001 -4.000000
vt 0.002354 0.975131
vt 0.002354 0.019868
vt 0.986835 0.019868
vt 0.986835 0.975131
vt -0.002365 0.008845
vt 1.000474 0.008845
vt 1.000474 0.976896
vt -0.002365 0.976896
vt 0.837890 0.136040
vt 0.837890 0.874861
vt 0.099068 0.874861
vt 0.099068 0.136040
vt 0.983079 0.972200
vt 0.008261 0.972200
vt 0.008261 0.017109
vt 0.983079 0.017109
vt 0.025568 0.978167
vt 0.025568 0.024292
vt 0.979442 0.024292
vt 0.979442 0.978167
vt 0.979150 0.977326
vt 0.010039 0.977326
vt 0.010039 0.034090
vt 0.979150 0.034090
vn 1.0000 0.0000 0.0000
vn 0.0000 0.0000 -1.0000
vn 0.0000 1.0000 0.0000
vn -1.0000 0.0000 0.0000
vn 0.0000 -1.0000 -0.0000
vn 0.0000 -0.0000 1.0000
usemtl FrontColor
s 1
f 1/1/1 2/2/1 3/3/1 4/4/1
f 5/5/2 2/6/2 1/7/2 6/8/2
f 5/9/3 7/10/3 3/11/3 2/12/3
f 6/13/4 8/14/4 7/15/4 5/16/4
f 8/17/5 6/18/5 1/19/5 4/20/5
f 8/21/6 4/22/6 3/23/6 7/24/6
