# Blender v2.80 (sub 75) OBJ File: 'km1,5x1,5.blend'
# www.blender.org
mtllib km1,5x1,5.mtl
o 1,5x1,5x2,5.003
v 0.000000 2.500000 0.000000
v 0.000000 0.000000 0.000000
v 0.000000 0.000000 -1.500000
v 0.000000 2.500000 -1.500000
v 1.500000 2.500000 0.000000
v 1.500000 0.000000 0.000000
v 1.500000 2.500000 -1.500000
v 1.500000 0.000000 -1.500000
vt 0.002430 0.995476
vt 0.002430 0.002138
vt 0.999165 0.002138
vt 0.999165 0.995476
vt 0.998843 0.002142
vt 0.998843 0.998950
vt 0.002700 0.998950
vt 0.002700 0.002142
vt 0.999106 0.993669
vt 0.002016 0.993669
vt 0.002016 0.005269
vt 0.999106 0.005269
vt 0.996131 0.996684
vt 0.001247 0.996684
vt 0.001247 0.001895
vt 0.996131 0.001895
vt 0.002835 0.996852
vt 0.002835 0.005550
vt 0.997489 0.005550
vt 0.997489 0.996852
vt 0.002348 0.997502
vt 0.002348 0.007304
vt 0.997435 0.007304
vt 0.997435 0.997502
vn 1.0000 0.0000 0.0000
vn 0.0000 0.0000 -1.0000
vn 0.0000 -1.0000 -0.0000
vn 0.0000 -0.0000 1.0000
vn 0.0000 1.0000 0.0000
vn -1.0000 -0.0000 0.0000
usemtl FrontColor
s 1
f 1/1/1 2/2/1 3/3/1 4/4/1
f 2/5/2 1/6/2 5/7/2 6/8/2
f 4/9/3 7/10/3 5/11/3 1/12/3
f 7/13/4 4/14/4 3/15/4 8/16/4
f 3/17/5 2/18/5 6/19/5 8/20/5
f 7/21/6 8/22/6 6/23/6 5/24/6
