# Blender v2.80 (sub 75) OBJ File: 'km2x2.blend'
# www.blender.org
mtllib km2x2.mtl
o 2x2x2,5
v 0.000000 2.500000 -2.000000
v 0.000000 2.500000 0.000000
v 0.000000 0.000000 0.000000
v 0.000000 0.000000 -2.000000
v 2.000000 2.500000 -2.000000
v 2.000000 2.500000 0.000000
v 2.000000 0.000000 -2.000000
v 2.000000 0.000000 0.000000
vt 0.997344 0.995649
vt 0.004986 0.995649
vt 0.004986 0.002496
vt 0.997344 0.002496
vt 0.002627 0.995511
vt 0.002627 0.003092
vt 0.996630 0.003092
vt 0.996630 0.995511
vt 0.002153 0.003152
vt 0.996977 0.003152
vt 0.996977 0.996928
vt 0.002153 0.996928
vt 0.001237 0.996822
vt 0.001237 0.002983
vt 0.997974 0.002983
vt 0.997974 0.996822
vt 0.996503 0.004018
vt 0.996503 0.996604
vt 0.002834 0.996604
vt 0.002834 0.004018
vt 0.997119 0.997363
vt 0.003906 0.997363
vt 0.003906 0.002789
vt 0.997119 0.002789
vn 1.0000 0.0000 0.0000
vn 0.0000 -1.0000 -0.0000
vn -1.0000 0.0000 0.0000
vn 0.0000 1.0000 0.0000
vn 0.0000 0.0000 -1.0000
vn 0.0000 -0.0000 1.0000
usemtl FrontColor
s 1
f 1/1/1 2/2/1 3/3/1 4/4/1
f 5/5/2 6/6/2 2/7/2 1/8/2
f 7/9/3 8/10/3 6/11/3 5/12/3
f 4/13/4 3/14/4 8/15/4 7/16/4
f 3/17/5 2/18/5 6/19/5 8/20/5
f 5/21/6 1/22/6 4/23/6 7/24/6
